<svg width="1920" height="1084" viewBox="0 0 1920 1084" fill="none" xmlns="http://www.w3.org/2000/svg">
<rect width="1920" height="1084" fill="black" fill-opacity="0.6"/>
<path d="M137.02 548.44C135.58 553.96 134.86 558.92 134.86 563.32C134.86 579.96 144.74 588.28 164.5 588.28C175.78 588.28 184.74 585.24 191.38 579.16C198.02 573.08 202.38 564.24 204.46 552.64L213.82 499.6H185.5L175.42 556.6C174.86 559.96 173.74 562.56 172.06 564.4C170.46 566.24 168.58 567.16 166.42 567.16C164.42 567.16 162.98 566.52 162.1 565.24C161.3 563.88 160.9 562 160.9 559.6C160.9 557.44 161.34 553.8 162.22 548.68V548.44H137.02ZM222.219 548.32C221.499 552.64 221.139 556.56 221.139 560.08C221.139 570.16 224.099 577.4 230.019 581.8C236.019 586.12 244.979 588.28 256.899 588.28C271.219 588.28 282.259 585.12 290.019 578.8C297.859 572.4 302.979 562.28 305.379 548.44L314.019 499.6H285.699L276.579 551.32C275.699 556.36 274.019 560.28 271.539 563.08C269.059 565.8 265.419 567.16 260.619 567.16C256.459 567.16 253.539 566.32 251.859 564.64C250.259 562.88 249.459 560.44 249.459 557.32C249.459 555.72 249.659 553.72 250.059 551.32L259.179 499.6H230.859L222.219 548.32ZM398.26 524.68C398.26 520.6 397.66 516.92 396.46 513.64C395.26 510.28 393.38 507.4 390.82 505C388.26 502.52 384.9 500.64 380.74 499.36C376.66 498 371.78 497.32 366.1 497.32C354.9 497.32 345.42 499.72 337.66 504.52C329.98 509.24 325.38 516.04 323.86 524.92C323.54 526.68 323.38 528.32 323.38 529.84C323.38 533.68 324.22 536.92 325.9 539.56C327.58 542.2 329.78 544.36 332.5 546.04C335.3 547.72 338.14 549.04 341.02 550C343.9 550.88 347.58 551.88 352.06 553C357.26 554.36 361.06 555.56 363.46 556.6C365.86 557.64 367.06 559.16 367.06 561.16C367.06 561.16 367.06 561.28 367.06 561.52C366.98 561.68 366.94 561.84 366.94 562C366.62 564 365.3 565.56 362.98 566.68C360.66 567.8 357.7 568.36 354.1 568.36C350.98 568.36 348.42 567.64 346.42 566.2C344.18 564.68 343.02 562.4 342.94 559.36H315.82C315.66 560.56 315.58 561.68 315.58 562.72C315.58 566.32 316.34 569.68 317.86 572.8C319.38 575.84 321.58 578.52 324.46 580.84C327.34 583.16 330.86 584.96 335.02 586.24C339.18 587.6 343.86 588.28 349.06 588.28C361.3 588.28 371.54 585.76 379.78 580.72C388.02 575.68 392.98 568.28 394.66 558.52C394.98 556.92 395.14 555.4 395.14 553.96C395.14 550.36 394.3 547.28 392.62 544.72C390.94 542.08 388.74 539.96 386.02 538.36C383.3 536.68 380.5 535.4 377.62 534.52C374.82 533.56 371.18 532.48 366.7 531.28C361.34 529.92 357.42 528.72 354.94 527.68C352.54 526.56 351.34 525 351.34 523C351.34 523 351.38 522.84 351.46 522.52C351.46 522.44 351.46 522.32 351.46 522.16C352.02 518.88 355.3 517.24 361.3 517.24C364.26 517.24 366.62 517.76 368.38 518.8C370.38 520 371.38 521.96 371.38 524.68H398.26ZM408.781 522.28H434.221L422.941 586H451.261L462.541 522.28H487.981L491.941 499.6H412.741L408.781 522.28ZM572.664 549.88C577.624 549.88 581.264 550.28 583.584 551.08C585.904 551.8 587.064 553.48 587.064 556.12C587.064 556.2 587.024 556.48 586.944 556.96C586.864 557.28 586.824 557.6 586.824 557.92C586.344 560.88 584.944 562.96 582.624 564.16C580.304 565.28 577.184 565.84 573.264 565.84H560.904L563.664 549.88H572.664ZM578.904 519.76C582.424 519.76 585.064 520.04 586.824 520.6C588.584 521.16 589.464 522.6 589.464 524.92C589.464 525 589.424 525.24 589.344 525.64C589.264 526.04 589.224 526.36 589.224 526.6C588.824 529 587.624 530.88 585.624 532.24C583.624 533.52 581.144 534.16 578.184 534.16H566.424L568.944 519.76H578.904ZM571.104 586C583.024 586 592.544 583.96 599.664 579.88C606.864 575.8 611.264 569.16 612.864 559.96C613.184 558.44 613.344 557 613.344 555.64C613.344 551.8 612.344 548.52 610.344 545.8C608.424 543 605.624 541.12 601.944 540.16C605.544 538.16 608.704 535.56 611.424 532.36C614.144 529.08 615.864 525.4 616.584 521.32C616.824 519.8 616.944 518.36 616.944 517C616.944 513.72 616.144 510.96 614.544 508.72C613.024 506.4 610.824 504.6 607.944 503.32C605.144 501.96 601.864 501 598.104 500.44C594.344 499.88 590.144 499.6 585.504 499.6H544.224L528.984 586H571.104ZM661.022 519.76H674.222C677.342 519.76 679.782 520.36 681.542 521.56C683.382 522.76 684.302 524.56 684.302 526.96C684.302 527.04 684.262 527.32 684.182 527.8C684.102 528.2 684.062 528.52 684.062 528.76C683.582 531.64 682.102 533.72 679.622 535C677.222 536.28 673.742 536.92 669.182 536.92H658.022L661.022 519.76ZM663.302 555.88C668.342 555.88 671.822 556.52 673.742 557.8C675.662 559 676.622 561.12 676.622 564.16C676.622 565.84 676.342 568.08 675.782 570.88C674.902 576.16 674.462 580.4 674.462 583.6C674.462 584 674.502 584.52 674.582 585.16C674.582 585.56 674.582 585.84 674.582 586H703.262L703.742 583.36C702.302 583.36 701.582 582.4 701.582 580.48C701.582 579.28 702.022 576.2 702.902 571.24C703.062 570.36 703.222 569.36 703.382 568.24C704.022 564.88 704.342 562 704.342 559.6C704.342 555.2 703.462 552.12 701.702 550.36C699.942 548.6 696.982 546.92 692.822 545.32C697.862 543.96 701.902 541.4 704.942 537.64C708.062 533.88 710.102 529.4 711.062 524.2C711.462 521.96 711.662 519.96 711.662 518.2C711.662 511.72 708.982 507 703.622 504.04C698.342 501.08 689.502 499.6 677.102 499.6H636.302L621.062 586H649.382L654.662 555.88H663.302ZM788.381 586L791.981 565.84H748.181L750.581 552.28H786.221L789.701 532.12H754.061L756.221 519.76H798.341L801.941 499.6H731.501L716.261 586H788.381ZM854.462 556.6H836.582L850.862 525.64L854.462 556.6ZM822.782 586L828.062 574.6H856.262L857.582 586H885.782L870.062 499.6H841.262L795.062 586H822.782ZM896.141 586H924.461L929.261 558.64L937.301 551.56L951.941 586H985.901L960.461 532.12L997.781 499.6H964.541L934.781 527.56L939.701 499.6H911.381L896.141 586ZM1059.7 586L1064.86 556.72L1066.66 543.28L1067.74 530.56H1067.98L1073.86 586H1093.54L1119.1 530.56H1119.34L1115.14 546.16L1112.38 559.6L1107.7 586H1133.14L1148.38 499.6H1114.18L1089.46 553.48L1083.7 499.6H1049.5L1034.26 586H1059.7ZM1201.1 556.6H1183.22L1197.5 525.64L1201.1 556.6ZM1169.42 586L1174.7 574.6H1202.9L1204.22 586H1232.42L1216.7 499.6H1187.9L1141.7 586H1169.42ZM1332.42 532.6C1332.42 532.12 1332.42 531.48 1332.42 530.68C1332.5 529.8 1332.54 529.2 1332.54 528.88C1332.54 518.8 1329.38 511.04 1323.06 505.6C1316.74 500.08 1307.42 497.32 1295.1 497.32C1289.1 497.32 1283.3 498.36 1277.7 500.44C1272.1 502.52 1266.98 505.56 1262.34 509.56C1257.7 513.56 1253.78 518.36 1250.58 523.96C1247.46 529.56 1245.3 535.8 1244.1 542.68C1243.46 546.36 1243.14 549.88 1243.14 553.24C1243.14 564.2 1246.5 572.8 1253.22 579.04C1260.02 585.2 1269.58 588.28 1281.9 588.28C1293.34 588.28 1303.3 585.12 1311.78 578.8C1320.34 572.4 1326.22 563.64 1329.42 552.52H1302.18C1300.82 557 1298.7 560.56 1295.82 563.2C1293.02 565.84 1289.46 567.16 1285.14 567.16C1280.1 567.16 1276.54 565.88 1274.46 563.32C1272.38 560.68 1271.34 557.12 1271.34 552.64C1271.34 550.08 1271.62 547.08 1272.18 543.64C1273.62 535.4 1276.1 529.16 1279.62 524.92C1283.22 520.6 1287.54 518.44 1292.58 518.44C1296.74 518.44 1299.94 519.52 1302.18 521.68C1304.42 523.84 1305.54 526.88 1305.54 530.8V531.64C1305.54 531.96 1305.54 532.28 1305.54 532.6H1332.42ZM1387.9 556.6H1370.02L1384.3 525.64L1387.9 556.6ZM1356.22 586L1361.5 574.6H1389.7L1391.02 586H1419.22L1403.5 499.6H1374.7L1328.5 586H1356.22ZM1467.86 519.76H1481.06C1484.18 519.76 1486.62 520.36 1488.38 521.56C1490.22 522.76 1491.14 524.56 1491.14 526.96C1491.14 527.04 1491.1 527.32 1491.02 527.8C1490.94 528.2 1490.9 528.52 1490.9 528.76C1490.42 531.64 1488.94 533.72 1486.46 535C1484.06 536.28 1480.58 536.92 1476.02 536.92H1464.86L1467.86 519.76ZM1470.14 555.88C1475.18 555.88 1478.66 556.52 1480.58 557.8C1482.5 559 1483.46 561.12 1483.46 564.16C1483.46 565.84 1483.18 568.08 1482.62 570.88C1481.74 576.16 1481.3 580.4 1481.3 583.6C1481.3 584 1481.34 584.52 1481.42 585.16C1481.42 585.56 1481.42 585.84 1481.42 586H1510.1L1510.58 583.36C1509.14 583.36 1508.42 582.4 1508.42 580.48C1508.42 579.28 1508.86 576.2 1509.74 571.24C1509.9 570.36 1510.06 569.36 1510.22 568.24C1510.86 564.88 1511.18 562 1511.18 559.6C1511.18 555.2 1510.3 552.12 1508.54 550.36C1506.78 548.6 1503.82 546.92 1499.66 545.32C1504.7 543.96 1508.74 541.4 1511.78 537.64C1514.9 533.88 1516.94 529.4 1517.9 524.2C1518.3 521.96 1518.5 519.96 1518.5 518.2C1518.5 511.72 1515.82 507 1510.46 504.04C1505.18 501.08 1496.34 499.6 1483.94 499.6H1443.14L1427.9 586H1456.22L1461.5 555.88H1470.14ZM1575.54 518.44C1580.34 518.44 1583.82 520 1585.98 523.12C1588.22 526.24 1589.34 530.28 1589.34 535.24C1589.34 537.56 1589.1 539.92 1588.62 542.32C1587.26 549.92 1584.82 555.96 1581.3 560.44C1577.78 564.92 1573.1 567.16 1567.26 567.16C1562.46 567.16 1559.02 565.64 1556.94 562.6C1554.94 559.48 1553.94 555.44 1553.94 550.48C1553.94 547.92 1554.18 545.2 1554.66 542.32C1555.22 539.36 1556.02 536.52 1557.06 533.8C1558.1 531 1559.46 528.44 1561.14 526.12C1562.82 523.8 1564.86 521.96 1567.26 520.6C1569.74 519.16 1572.5 518.44 1575.54 518.44ZM1579.5 497.32C1572.86 497.32 1566.58 498.36 1560.66 500.44C1554.74 502.52 1549.42 505.56 1544.7 509.56C1539.98 513.48 1536.02 518.2 1532.82 523.72C1529.7 529.24 1527.58 535.36 1526.46 542.08C1525.74 545.84 1525.38 549.48 1525.38 553C1525.38 564.2 1528.74 572.88 1535.46 579.04C1542.26 585.2 1551.62 588.28 1563.54 588.28C1569.94 588.28 1576.06 587.28 1581.9 585.28C1587.82 583.2 1593.18 580.2 1597.98 576.28C1602.78 572.28 1606.82 567.4 1610.1 561.64C1613.38 555.88 1615.66 549.44 1616.94 542.32C1617.5 539.2 1617.78 536.16 1617.78 533.2C1617.78 528.24 1617.02 523.6 1615.5 519.28C1613.98 514.96 1611.66 511.16 1608.54 507.88C1605.42 504.6 1601.42 502.04 1596.54 500.2C1591.66 498.28 1585.98 497.32 1579.5 497.32ZM1663.98 499.6H1637.46L1622.22 586H1649.34L1654.14 558.64L1656.54 538.96L1679.1 586H1705.62L1720.86 499.6H1693.74L1688.94 527.08L1686.54 546.76L1663.98 499.6ZM1772.46 554.32H1786.02L1798.14 520.96L1801.86 499.6H1776.3L1772.58 520.96L1772.46 554.32ZM1785.9 586L1789.98 562.72H1765.26L1761.18 586H1785.9Z" fill="white"/>
</svg>
