<svg width="36" height="36" viewBox="0 0 36 36" fill="none" xmlns="http://www.w3.org/2000/svg"><path d="M15.0229 16.7101C15.3165 16.4975 15.4582 16.1466 15.4582 15.664 15.4683 15.4346 15.4211 15.2085 15.3198 15.0026 15.2287 14.8373 15.0937 14.6989 14.9284 14.6011 14.757 14.4971 14.5666 14.4283 14.3683 14.3986 14.1523 14.3581 13.933 14.3379 13.717 14.3413H11.3448V17.0306h2.5679C14.3548 17.034 14.7293 16.926 15.0229 16.7101zM15.4211 19.1396C15.0904 18.8865 14.6483 18.7617 14.0983 18.7617H11.3381V21.9336H14.0443C14.2974 21.9336 14.5302 21.91 14.7563 21.8627 14.9702 21.8209 15.1741 21.7384 15.357 21.6198 15.529 21.5084 15.6674 21.3566 15.772 21.1609 15.8732 20.9652 15.9238 20.7155 15.9238 20.4151 15.9238 19.8179 15.7551 19.3961 15.4211 19.1396zM18.1172 3C9.76899 3 3 9.76899 3 18.1172 3 26.4654 9.76899 33.2344 18.1172 33.2344 26.4654 33.2344 33.2344 26.4654 33.2344 18.1172 33.2344 9.76899 26.4654 3 18.1172 3zM21.036 12.6811H25.7062V13.8182H21.036V12.6811zM18.1172 22.0585C17.8988 22.4731 17.5868 22.8312 17.2061 23.1045 16.8079 23.3812 16.3659 23.5837 15.8969 23.7018 15.4061 23.8333 14.8999 23.898 14.3919 23.8941H8.80392V12.3841H14.2367C14.7867 12.3841 15.2861 12.4347 15.7416 12.5292 16.1938 12.6237 16.5785 12.7857 16.9024 13.005 17.223 13.2243 17.4761 13.5179 17.6549 13.8823 17.8304 14.2434 17.9215 14.6956 17.9215 15.2321 17.9215 15.8125 17.7899 16.2917 17.5267 16.6797 17.2601 17.0678 16.8754 17.3816 16.3524 17.6279 17.0644 17.8304 17.5874 18.1914 17.9316 18.6976 18.2825 19.2105 18.4546 19.8246 18.4546 20.5467 18.4546 21.1339 18.3433 21.6367 18.1172 22.0585zM27.5249 20.2768H21.5051C21.5051 20.9314 21.7311 21.559 22.072 21.8965 22.4161 22.2305 22.9088 22.3993 23.5533 22.3993 24.019 22.3993 24.4138 22.2812 24.7512 22.0483 25.0853 21.8155 25.2877 21.5692 25.362 21.3127H27.3798C27.0559 22.3149 26.5632 23.0303 25.8951 23.4622 25.2337 23.8941 24.4239 24.1101 23.4824 24.1101 22.8244 24.1101 22.2339 24.0021 21.7041 23.7963 21.1946 23.5972 20.7357 23.2935 20.3578 22.902 19.9851 22.5001 19.6971 22.0273 19.5108 21.5118 19.305 20.9415 19.2037 20.3409 19.2105 19.7369 19.2105 19.1126 19.3151 18.5322 19.5176 17.9923 19.9056 16.9429 20.7121 16.1027 21.7413 15.6674 22.2913 15.4379 22.8818 15.3232 23.4791 15.33 24.1877 15.33 24.8018 15.4649 25.335 15.7416 25.8482 16.0058 26.2939 16.3845 26.6375 16.8484 26.9783 17.3107 27.2179 17.8371 27.3697 18.431 27.5148 19.0148 27.5654 19.6289 27.5249 20.2768zM23.4082 17.0509C23.0438 17.0509 22.7367 17.115 22.5005 17.2399 22.2643 17.3647 22.0686 17.5199 21.9201 17.6988 21.7787 17.8714 21.6742 18.0713 21.613 18.2859 21.559 18.4647 21.5219 18.647 21.5084 18.8326h3.7287C25.1831 18.2488 24.9807 17.8169 24.7107 17.5132 24.4273 17.2129 23.9717 17.0509 23.4082 17.0509z" fill="#fff"/></svg>