<svg width="23" height="12" viewBox="0 0 23 12" fill="none" xmlns="http://www.w3.org/2000/svg">
<path d="M2.96139 11.22C2.54246 11.2214 2.13366 11.0913 1.79268 10.8479C1.45169 10.6045 1.19574 10.2602 1.06095 9.86353C0.926153 9.46688 0.919315 9.03791 1.0414 8.63717C1.16349 8.23642 1.40833 7.88412 1.74139 7.63L11.6514 0L21.5714 7.63C21.9918 7.95356 22.2664 8.43087 22.3348 8.95691C22.4033 9.48295 22.26 10.0146 21.9364 10.435C21.6128 10.8554 21.1355 11.13 20.6095 11.1984C20.0834 11.2669 19.5518 11.1236 19.1314 10.8L11.6514 5.05L4.18139 10.8C3.83229 11.0709 3.40328 11.2186 2.96139 11.22Z" fill="white"/>
</svg>
