<svg width="49" height="38" viewBox="0 0 49 38" fill="none" xmlns="http://www.w3.org/2000/svg">
<path d="M25.1118 37.3C19.3218 37.12 14.1118 36.56 9.25176 34.17C7.42959 33.3371 5.81687 32.107 4.53176 30.57C3.48601 29.2681 2.88029 27.668 2.80176 26C2.80176 25.66 3.09176 25.3 3.25176 24.94C3.49963 25.0509 3.72898 25.1993 3.93176 25.38C4.37322 25.9794 4.94296 26.4726 5.59938 26.8237C6.2558 27.1749 6.98233 27.375 7.72596 27.4095C8.46958 27.444 9.21153 27.312 9.89763 27.0231C10.5837 26.7343 11.1967 26.2959 11.6918 25.74C13.0118 24.43 13.8118 24.43 15.1318 25.74C15.6164 26.3014 16.2121 26.7563 16.8812 27.0761C17.5504 27.3959 18.2786 27.5736 19.0198 27.598C19.7611 27.6224 20.4993 27.4931 21.1881 27.218C21.8769 26.943 22.5012 26.5283 23.0218 26C24.5018 24.69 24.4918 24.3 26.3518 26C28.9618 28.39 31.9018 28.16 34.4018 25.57C34.5776 25.3243 34.8095 25.1241 35.0782 24.986C35.3469 24.8479 35.6446 24.7759 35.9468 24.7759C36.2489 24.7759 36.5466 24.8479 36.8153 24.986C37.084 25.1241 37.3159 25.3243 37.4918 25.57C40.1418 28.24 43.3118 28.06 45.6218 25.09C46.1918 24.36 46.8118 24.67 47.4418 24.86C48.0718 25.05 48.0518 25.59 48.0218 26.18C47.868 27.9514 47.0542 29.6004 45.7418 30.8C44.0027 32.4823 41.9272 33.7774 39.6518 34.6C36.4498 35.8634 33.0813 36.655 29.6518 36.95C28.0218 37.09 26.2818 37.2 25.1118 37.3Z" fill="white"/>
<path d="M46.3818 9.71002C45.7048 7.64955 44.3195 5.89572 42.4718 4.76002C39.6239 2.91873 36.4276 1.68311 33.0818 1.13002C30.3046 0.592851 27.4802 0.338221 24.6518 0.370019C21.8233 0.338836 18.999 0.593461 16.2218 1.13002C12.879 1.68305 9.68598 2.91873 6.84176 4.76002C4.98875 5.88973 3.60166 7.64577 2.93176 9.71002C2.71585 10.3153 2.58788 10.9484 2.55176 11.59C2.55176 12.69 3.26176 13 4.96176 13H44.3518C46.0418 13 46.7518 12.69 46.7518 11.59C46.7152 10.9494 46.5907 10.3168 46.3818 9.71002V9.71002Z" fill="white"/>
<path d="M24.3617 16.77H46.8717C48.2517 16.77 49.0517 18.02 48.6217 19.54C48.5645 19.9048 48.379 20.2372 48.0985 20.4774C47.818 20.7175 47.4609 20.8497 47.0917 20.85H45.0917C44.7442 20.8452 44.4032 20.9445 44.1127 21.1352C43.8222 21.3259 43.5955 21.5992 43.4617 21.92C42.3617 23.98 41.1017 24.17 39.5217 22.56C39.0696 22.0401 38.5102 21.6243 37.882 21.3412C37.2539 21.0582 36.5718 20.9146 35.8829 20.9203C35.1939 20.926 34.5143 21.0808 33.891 21.3743C33.2676 21.6677 32.7151 22.0927 32.2717 22.62C30.8017 24.19 29.6717 24.25 28.0817 22.76C27.2569 21.8006 26.0991 21.1895 24.8417 21.05C24.2897 21.0351 23.7403 21.13 23.2253 21.3291C22.7104 21.5282 22.24 21.8276 21.8417 22.21C21.5317 22.49 21.2317 22.79 20.9117 23.06C20.6761 23.3196 20.3854 23.5231 20.061 23.6558C19.7365 23.7885 19.3865 23.8469 19.0365 23.8268C18.6866 23.8066 18.3455 23.7085 18.0384 23.5394C17.7313 23.3704 17.4659 23.1349 17.2617 22.85C14.7717 20.28 12.1617 20.25 9.61168 22.76C8.22168 24.13 6.85168 23.89 5.93168 22.05C5.78874 21.6683 5.52442 21.3442 5.17935 21.1274C4.83427 20.9106 4.42754 20.8131 4.02168 20.85C3.28168 20.85 2.54168 20.85 1.80168 20.85C1.54055 20.8473 1.28304 20.7886 1.04664 20.6776C0.810245 20.5666 0.600496 20.4061 0.431641 20.2069C0.262785 20.0077 0.138778 19.7744 0.0680405 19.5231C-0.00269687 19.2717 -0.0185077 19.008 0.0216819 18.75C-0.00861189 18.4945 0.0165247 18.2355 0.095379 17.9906C0.174233 17.7457 0.304952 17.5207 0.478628 17.3309C0.652304 17.141 0.864856 16.9909 1.1018 16.8907C1.33875 16.7904 1.59452 16.7424 1.85168 16.75L24.3617 16.77Z" fill="white"/>
</svg>
