<svg width="36" height="36" viewBox="0 0 36 36" fill="none" xmlns="http://www.w3.org/2000/svg"><path d="M9.07296 3.9375C6.22814 3.9375 3.9375 6.22814 3.9375 9.07295V26.927C3.9375 29.7718 6.22814 32.0625 9.07296 32.0625H18.7497V21.0674H15.8423V17.1088H18.7497V13.7268C18.7497 11.0696 20.4676 8.62998 24.4248 8.62998 26.027 8.62998 27.2118 8.78379 27.2118 8.78379L27.1187 12.4805C27.1187 12.4805 25.9103 12.4691 24.5918 12.4691 23.1648 12.4691 22.9359 13.1266 22.9359 14.2181V17.1088H27.232L27.0448 21.0674H22.9359V32.0625H26.927C29.7719 32.0625 32.0625 29.7719 32.0625 26.9271V9.07297C32.0625 6.22816 29.7719 3.93753 26.927 3.93753H9.07293L9.07296 3.9375z" fill="#fff"/></svg>