<svg width="36" height="36" viewBox="0 0 36 36" fill="none" xmlns="http://www.w3.org/2000/svg"><path d="M17.3672 2.25C9.01899 2.25 2.25 9.01899 2.25 17.3672 2.25 25.7154 9.01899 32.4844 17.3672 32.4844 25.7154 32.4844 32.4844 25.7154 32.4844 17.3672 32.4844 9.01899 25.7154 2.25 17.3672 2.25zM24.6322 13.6453C24.6423 13.8039 24.6423 13.9692 24.6423 14.1312 24.6423 19.0847 20.8698 24.7908 13.9759 24.7908 11.8501 24.7908 9.87946 24.1733 8.21926 23.1104 8.52296 23.1441 8.81315 23.1576 9.1236 23.1576 10.8783 23.1576 12.4912 22.5637 13.7769 21.5582 12.1302 21.5244 10.7467 20.4446 10.2743 18.9599 10.8513 19.0443 11.3709 19.0443 11.9648 18.8924 11.1169 18.7201 10.3548 18.2596 9.80797 17.5892 9.26113 16.9187 8.96327 16.0795 8.965 15.2143V15.1671C9.46103 15.4472 10.0448 15.6193 10.6556 15.6429 10.1421 15.3007 9.72106 14.8371 9.42969 14.2932 9.13832 13.7494 8.98566 13.142 8.98525 12.525 8.98525 11.8265 9.16746 11.1887 9.49478 10.6353 10.4359 11.7939 11.6103 12.7414 12.9416 13.4164 14.2729 14.0913 15.7313 14.4786 17.2221 14.553 16.6923 12.0053 18.5955 9.94357 20.8833 9.94357 21.9631 9.94357 22.9349 10.3957 23.6199 11.1246 24.4669 10.966 25.2767 10.6488 25.9988 10.2236 25.7188 11.0909 25.1316 11.8231 24.3521 12.2854 25.108 12.2044 25.8369 11.9952 26.5117 11.7016 26.0022 12.4507 25.3644 13.1155 24.6322 13.6453z" fill="#fff"/></svg>